<?xml version="1.0" encoding="utf-8"?>
<!-- Generator: Adobe Illustrator 21.1.0, SVG Export Plug-In . SVG Version: 6.00 Build 0)  -->
<svg version="1.1" xmlns="http://www.w3.org/2000/svg" xmlns:xlink="http://www.w3.org/1999/xlink" x="0px" y="0px"
	 viewBox="0 0 24 24" style="enable-background:new 0 0 24 24;" xml:space="preserve">
<style type="text/css">
	.st0{fill:url(#SVGID_1_);}
	.st1{fill:url(#SVGID_2_);}
	.st2{fill:url(#SVGID_3_);}
	.st3{fill:#FFFFFF;}
	.st4{fill:url(#SVGID_4_);}
	.st5{fill:url(#SVGID_5_);}
	.st6{display:none;}
	.st7{display:inline;fill:none;}
</style>
<g id="Bookmark">
	<linearGradient id="SVGID_1_" gradientUnits="userSpaceOnUse" x1="12" y1="24" x2="12" y2="0">
		<stop  offset="0" style="stop-color:#71274F"/>
		<stop  offset="1" style="stop-color:#8C3162"/>
	</linearGradient>
	<rect y="0" class="st0" width="24" height="24"/>
	<path class="st3" d="M15.171,12.342c-0.507,0-0.977,0.145-1.389,0.38l-2.502-2.502c0.239-0.421,0.377-0.894,0.377-1.39
		C11.658,7.269,10.389,6,8.829,6C7.269,6,6,7.269,6,8.829c0,1.56,1.269,2.829,2.829,2.829c0.498,0,0.969-0.139,1.39-0.379
		l2.503,2.503c-0.235,0.412-0.38,0.882-0.38,1.389c0,1.56,1.269,2.829,2.829,2.829c0.768,0,1.487-0.303,2.022-0.851
		C17.713,16.618,18,15.916,18,15.171C18,13.611,16.731,12.342,15.171,12.342z M7.5,8.829C7.5,8.096,8.096,7.5,8.829,7.5
		c0.732,0,1.329,0.596,1.329,1.329c0,0.349-0.134,0.679-0.378,0.929c-0.252,0.258-0.59,0.4-0.95,0.4
		C8.096,10.158,7.5,9.562,7.5,8.829z M16.121,16.101c-0.252,0.258-0.589,0.399-0.95,0.399c-0.733,0-1.329-0.597-1.329-1.329
		c0-0.364,0.148-0.694,0.386-0.934c0.001-0.001,0.003-0.002,0.005-0.003c0.001-0.001,0.002-0.003,0.003-0.005
		c0.24-0.238,0.57-0.387,0.935-0.387c0.732,0,1.329,0.597,1.329,1.329C16.5,15.521,16.366,15.851,16.121,16.101z"/>
</g>
<g id="Check_in">
</g>
<g id="Check_out">
</g>
<g id="Circulation">
</g>
<g id="Imported_files">
</g>
<g id="Fullscreen">
</g>
<g id="help">
</g>
<g id="Install">
</g>
<g id="Log_in">
</g>
<g id="Sign_up">
</g>
<g id="Notifications">
</g>
<g id="My_apps">
</g>
<g id="Using_Folio">
</g>
<g id="Notes">
</g>
<g id="Search">
</g>
<g id="Scan">
	<g id="Layer_17">
	</g>
</g>
<g id="Order">
</g>
<g id="Bibs">
</g>
<g id="Platforms">
</g>
<g id="Split">
</g>
<g id="To-do">
</g>
<g id="Package">
</g>
<g id="Licenses">
</g>
<g id="Workflows">
</g>
<g id="Users">
</g>
<g id="Contacts">
</g>
<g id="Preference">
</g>
<g id="Items">
</g>
<g id="Finances">
</g>
<g id="Invoices">
</g>
<g id="Calendar">
</g>
<g id="Shop">
</g>
<g id="Blank">
</g>
</svg>
